<?xml version="1.0" standalone="no"?>
<!DOCTYPE svg PUBLIC "-//W3C//DTD SVG 20010904//EN"
 "http://www.w3.org/TR/2001/REC-SVG-20010904/DTD/svg10.dtd">
<svg version="1.0" xmlns="http://www.w3.org/2000/svg"
 width="512.000000pt" height="512.000000pt" viewBox="0 0 512.000000 512.000000"
 preserveAspectRatio="xMidYMid meet">
<metadata>
Created by potrace 1.14, written by Peter Selinger 2001-2017
</metadata>
<g transform="translate(0.000000,512.000000) scale(0.100000,-0.100000)"
fill="#000000" stroke="none">
<path d="M4047 4629 c-9 -6 -17 -7 -17 -4 0 11 -62 -27 -101 -62 -43 -39 -72
-88 -83 -138 -3 -16 -8 -91 -10 -165 -3 -74 -8 -193 -12 -265 -4 -71 -7 -140
-8 -153 0 -19 -31 -42 -182 -133 -100 -60 -184 -109 -187 -109 -3 0 -4 15 -2
33 2 17 6 82 10 142 4 61 8 133 10 160 25 332 24 406 -3 465 -63 137 -234 201
-367 140 -107 -50 -159 -138 -169 -285 -4 -49 -9 -120 -11 -157 -3 -37 -7
-108 -10 -158 -3 -50 -7 -116 -10 -148 -2 -31 -7 -97 -10 -147 -13 -215 -26
-399 -28 -401 -4 -4 -439 -265 -458 -274 -19 -11 -19 -8 -14 137 5 143 11 299
20 508 11 273 19 499 19 580 -1 77 -4 97 -27 142 -100 195 -362 210 -484 28
-42 -62 -45 -91 -58 -460 -4 -93 -8 -208 -10 -255 -2 -47 -7 -161 -10 -255 -3
-93 -8 -210 -10 -260 -3 -73 -13 -335 -19 -480 -2 -47 5 -42 -214 -170 -40
-23 -299 -180 -321 -194 l-23 -15 7 145 c4 79 8 160 10 179 1 19 6 80 9 135 4
55 9 111 11 125 2 14 6 54 10 90 3 36 7 84 10 108 2 23 7 66 10 95 2 28 7 61
9 72 2 11 7 47 10 80 6 55 32 245 41 305 2 14 11 70 20 125 9 55 18 111 20
125 3 14 10 54 17 90 14 77 14 91 4 150 -27 168 -222 271 -380 201 -116 -51
-163 -136 -191 -341 -3 -19 -7 -46 -10 -60 -11 -57 -14 -77 -20 -125 -3 -27
-8 -57 -10 -65 -5 -19 -21 -135 -51 -365 -3 -22 -7 -51 -9 -65 -2 -14 -7 -58
-10 -97 -3 -40 -8 -81 -10 -92 -2 -10 -6 -54 -10 -98 -4 -43 -8 -94 -10 -113
-7 -74 -24 -308 -30 -415 -5 -87 -17 -401 -19 -475 l-1 -55 -210 -126 c-224
-134 -265 -168 -298 -239 -64 -139 -1 -302 141 -368 96 -44 192 -30 309 45 29
18 54 33 55 33 2 0 4 -37 5 -83 0 -95 11 -259 19 -301 15 -85 84 -171 166
-206 43 -18 65 -22 123 -18 111 8 189 59 238 157 25 52 25 65 14 527 -5 194
-4 254 6 262 15 12 525 312 531 312 2 0 3 -30 1 -67 -2 -38 -6 -144 -10 -238
-3 -93 -8 -215 -10 -270 -17 -423 -17 -406 2 -464 24 -77 99 -153 173 -175
113 -33 206 -11 285 68 83 82 84 91 100 551 3 88 8 203 10 255 2 52 7 172 11
265 4 94 8 197 9 230 2 33 3 90 4 126 l1 66 212 129 c240 146 262 159 255 147
-3 -4 -8 -62 -12 -128 -3 -66 -8 -136 -10 -155 -2 -19 -6 -87 -10 -150 -4 -63
-8 -133 -10 -155 -2 -22 -7 -85 -10 -140 -3 -55 -8 -125 -10 -155 -2 -30 -7
-100 -10 -155 -4 -55 -8 -118 -10 -140 -1 -22 -6 -89 -10 -150 -4 -60 -8 -126
-10 -145 -2 -19 -6 -102 -9 -185 -5 -173 4 -205 76 -277 130 -130 339 -103
438 57 26 42 37 100 46 235 3 63 8 131 9 150 1 19 6 87 9 150 4 63 9 131 11
150 2 19 7 85 10 145 3 61 8 133 10 160 2 28 7 97 10 155 4 58 8 121 10 140 2
19 6 87 10 150 3 63 8 135 10 160 2 25 7 90 10 146 3 55 8 123 10 150 2 27 6
96 10 154 6 89 11 163 14 192 1 4 79 53 174 109 94 56 180 109 191 118 17 15
18 11 11 -159 -3 -96 -8 -206 -10 -245 -3 -38 -7 -122 -10 -185 -6 -139 -14
-295 -20 -410 -3 -47 -7 -139 -10 -205 -6 -125 -9 -182 -21 -430 -14 -276 -12
-324 19 -388 46 -93 127 -146 233 -153 103 -6 181 31 246 117 44 58 50 97 63
389 3 69 8 168 10 220 3 52 7 145 10 205 3 61 7 146 10 190 2 44 7 143 11 220
3 77 7 165 9 195 2 30 6 125 10 210 3 85 8 175 10 200 2 25 7 119 11 210 3 91
8 179 9 195 2 17 3 62 4 100 l1 70 208 125 c114 69 219 131 234 138 41 21 107
81 133 121 106 170 -18 410 -220 424 -75 5 -114 -7 -219 -68 -53 -30 -98 -55
-101 -55 -3 0 -4 57 -3 128 3 124 2 129 -27 186 -33 65 -69 100 -135 129 -49
22 -155 31 -183 16z"/>
</g>
</svg>
